<svg xmlns="http://www.w3.org/2000/svg" width="20" height="20" viewBox="0 0 20 20" fill="none">
  <g>
    <path d="M9.99984 3.33301C9.77882 3.33301 9.56686 3.42081 9.41058 3.57709C9.2543 3.73337 9.1665 3.94533 9.1665 4.16634V16.6663C9.1665 16.8874 9.2543 17.0993 9.41058 17.2556C9.56686 17.4119 9.77882 17.4997 9.99984 17.4997C10.2209 17.4997 10.4328 17.4119 10.5891 17.2556C10.7454 17.0993 10.8332 16.8874 10.8332 16.6663V4.16634C10.8332 3.94533 10.7454 3.73337 10.5891 3.57709C10.4328 3.42081 10.2209 3.33301 9.99984 3.33301Z" fill="currentColor"/>
    <path d="M15.8333 10C15.6123 10 15.4004 10.0878 15.2441 10.2441C15.0878 10.4004 15 10.6123 15 10.8333V16.6667C15 16.8877 15.0878 17.0996 15.2441 17.2559C15.4004 17.4122 15.6123 17.5 15.8333 17.5C16.0543 17.5 16.2663 17.4122 16.4226 17.2559C16.5789 17.0996 16.6667 16.8877 16.6667 16.6667V10.8333C16.6667 10.6123 16.5789 10.4004 16.4226 10.2441C16.2663 10.0878 16.0543 10 15.8333 10Z" fill="currentColor"/>
    <path d="M4.16683 6.66699C3.94582 6.66699 3.73385 6.75479 3.57757 6.91107C3.42129 7.06735 3.3335 7.27931 3.3335 7.50033V16.667C3.3335 16.888 3.42129 17.1 3.57757 17.2562C3.73385 17.4125 3.94582 17.5003 4.16683 17.5003C4.38784 17.5003 4.5998 17.4125 4.75608 17.2562C4.91237 17.1 5.00016 16.888 5.00016 16.667V7.50033C5.00016 7.27931 4.91237 7.06735 4.75608 6.91107C4.5998 6.75479 4.38784 6.66699 4.16683 6.66699Z" fill="currentColor"/>
  </g>
</svg>